# xmcd
#
# Track frame offsets: 
#        150
#        19089
#        28852
#        48725
#        57646
#        76449
#        101749
#        116586
#        132981
#        159935
#        173823
#        194030
#        204543
#
# Disc length: 2943 seconds
#
# Revision: 0
# Processed by: cddbd v1.5.2PL0 Copyright (c) Steve Scherf et al.
# Submitted via: ExactAudioCopyFreeDBPlugin 1.0
#
DISCID=bc0b7d0d
DTITLE=Fried Bourbon - Gravy Train
DYEAR=2012
DGENRE=Blues
TTITLE0=A Feeling Called The Blues
TTITLE1=Gravy Train
TTITLE2=Blowin' My Blues Away
TTITLE3=Lovin' Man
TTITLE4=The Storm
TTITLE5=Diggin' A Hole
TTITLE6=Kiddo
TTITLE7=Lowdown Love
TTITLE8=Nine Below Zero
TTITLE9=Budget Lodge Blues
TTITLE10=Out Of Town
TTITLE11=Your King Is Coming
TTITLE12=Turn Your Damper Down
EXTD=
EXTT0=
EXTT1=
EXTT2=
EXTT3=
EXTT4=
EXTT5=
EXTT6=
EXTT7=
EXTT8=
EXTT9=
EXTT10=
EXTT11=
EXTT12=
PLAYORDER=
